<?xml version="1.0" standalone="no"?>
<!DOCTYPE svg PUBLIC "-//W3C//DTD SVG 1.1//EN" "http://www.w3.org/Graphics/SVG/1.1/DTD/svg11.dtd" >
<svg xmlns="http://www.w3.org/2000/svg">
<metadata></metadata>
<defs>
<font id="bullpen_hvregular" horiz-adv-x="1202" >
<font-face units-per-em="2048" ascent="1651" descent="-397" />
<missing-glyph horiz-adv-x="593" />
<glyph unicode="&#x28;C&#x29;" horiz-adv-x="1867" d="M119 795q0 168 63.5 316.5t174 259t259 175t318.5 64.5q168 0 316.5 -64.5t259 -175t175 -259t64.5 -316.5q0 -170 -64.5 -318.5t-175 -259.5t-259 -174t-316.5 -63q-170 0 -318.5 63t-259 174t-174 259.5t-63.5 318.5zM201 795q0 -152 57 -286t156.5 -233.5t233.5 -157 t286 -57.5t286 57.5t233 157t156.5 233.5t57.5 286t-57.5 285.5t-156.5 233t-233.5 157t-285.5 57.5q-152 0 -286 -57.5t-233.5 -157t-156.5 -233.5t-57 -285zM639 545v506q0 94 70.5 138t224.5 44q160 0 227.5 -43t67.5 -129v-150h-240v142q0 29 -13 45t-42 16 q-25 0 -38 -16.5t-13 -44.5v-508q0 -59 51 -60q55 0 55 60v147h244v-160q0 -86 -69.5 -125.5t-229.5 -39.5q-156 0 -225.5 43t-69.5 135z" />
<glyph unicode="&#x28;R&#x29;" horiz-adv-x="1417" d="M119 1016q0 123 46 231.5t126 189.5t187.5 127t228.5 46q119 0 226 -47t189 -129t129 -189.5t47 -228.5t-46 -227.5t-127 -186.5t-188.5 -126t-229.5 -46q-125 0 -232.5 45t-186.5 124t-124 185.5t-45 231.5zM238 1014q0 -96 35.5 -181t98 -148.5t148.5 -99.5t187 -36 q98 0 183 36t147.5 98t98 147.5t35.5 183.5q0 100 -36.5 186t-99 148.5t-147.5 98.5t-181 36q-100 0 -186.5 -37t-149 -99.5t-98 -148.5t-35.5 -184zM481 756v82h39v401h-39v82h310q102 0 102 -72v-145q0 -55 -62 -66q61 -12 62 -65v-133q0 -14 10 -15q14 0 15 15v127h45 v-142q0 -70 -68 -69h-80q-72 0 -72 69v156q0 18 -20 18h-55v-161h39v-82h-226zM668 1077h55q20 0 20 19v121q0 23 -20 22h-55v-162z" />
<glyph horiz-adv-x="2048" />
<glyph horiz-adv-x="2048" />
<glyph unicode="&#xd;" horiz-adv-x="0" />
<glyph horiz-adv-x="593" />
<glyph unicode=" "  horiz-adv-x="593" />
<glyph unicode="&#x09;" horiz-adv-x="593" />
<glyph unicode="&#xa0;" horiz-adv-x="593" />
<glyph unicode="!" horiz-adv-x="667" d="M145 903v686h379v-684l-121 -456h-139zM150 133v82q0 137 124 137h119q123 0 123 -133v-86q0 -133 -123 -133h-117q-127 0 -126 133z" />
<glyph unicode="&#x22;" horiz-adv-x="688" d="M70 1589h202l-55 -456q-6 -35 -49 -35q-39 0 -45 35zM414 1589h202l-55 -456q-6 -35 -49 -35q-39 0 -45 35z" />
<glyph unicode="#" horiz-adv-x="1339" d="M74 440l43 178h196l86 353h-196l45 178h196l105 440h164l-105 -440h322l106 440h162l-106 -440h178l-45 -178h-178l-84 -353h176l-43 -178h-178l-109 -440h-166l113 440h-322l-108 -440h-164l108 440h-196zM477 618h320l88 353h-322z" />
<glyph unicode="$" horiz-adv-x="1159" d="M119 469v143h354v-131q0 -66 96 -65q94 0 95 65v115q0 49 -45.5 69.5t-137.5 30.5q-100 12 -167.5 30.5t-108.5 48.5t-58.5 73t-17.5 104v187q0 66 18.5 116t64.5 84.5t124 53t194 22.5v174h105v-174q117 -4 193.5 -22.5t121.5 -53t62.5 -87t17.5 -119.5v-142h-346v129 q0 66 -94 66t-94 -66v-112q0 -55 51 -75t121.5 -27t146.5 -15t125 -39q100 -63 100 -201v-188q0 -66 -20.5 -116t-67.5 -85t-124.5 -54.5t-192.5 -23.5v-184h-105v184q-121 2 -200.5 21.5t-126.5 55.5t-65.5 88t-18.5 120z" />
<glyph unicode="%" horiz-adv-x="1714" d="M133 945v536q0 72 57.5 105.5t206.5 33.5q147 0 205 -34.5t58 -106.5v-534q0 -72 -58.5 -106t-204.5 -34q-147 0 -205.5 34t-58.5 106zM162 -61l1212 1712h182l-1210 -1712h-184zM342 953q0 -33 55 -33q53 0 54 33v518q0 33 -54 33q-55 0 -55 -33v-518zM1054 109v536 q0 72 57.5 105.5t206.5 33.5q147 0 205 -34.5t58 -106.5v-534q0 -72 -58.5 -106t-204.5 -34q-147 0 -205.5 34t-58.5 106zM1263 117q0 -33 55 -33q53 0 54 33v518q0 33 -54 33q-55 0 -55 -33v-518z" />
<glyph unicode="&#x26;" horiz-adv-x="1521" d="M96 164v356q0 68 22.5 109t69.5 76l248 186l-65 176q-37 98 -37 170v170q0 92 58.5 137t180.5 45h320q96 0 141 -36.5t45 -129.5v-194q0 -100 -53 -181t-162 -163l101 -289q29 27 46 70t17 129v106h326v-213h-180q-27 -211 -127 -344l12 -43q27 -70 94 -70q66 0 66 66 v227h219v-245q0 -141 -85 -220t-259 -79q-125 0 -211 34.5t-133 83.5q-109 -98 -175 -98h-317q-162 0 -162 164zM469 299q0 -70 68 -70q96 0 118 29l-133 367q-53 -37 -53 -74v-252zM756 1253q0 -57 35 -161q100 88 100 141v76q0 49 -55 49h-25q-55 0 -55 -35v-70z" />
<glyph unicode="'" horiz-adv-x="344" d="M70 1589h202l-55 -456q-6 -35 -49 -35q-39 0 -45 35z" />
<glyph unicode="(" horiz-adv-x="698" d="M172 784q0 242 20.5 429.5t65.5 314.5t116.5 192.5t174.5 65.5h31v-82h-21q-53 0 -98 -41t-79 -145.5t-52.5 -282.5t-18.5 -451q0 -272 18.5 -450t52.5 -282.5t79 -145.5t98 -41h21v-82h-31q-102 0 -174 65.5t-117 192.5t-65.5 313.5t-20.5 429.5z" />
<glyph unicode=")" horiz-adv-x="696" d="M119 -135h20q53 0 98.5 41t79 145.5t52 282.5t18.5 450t-18.5 450.5t-52 283t-78.5 145.5t-99 41h-20v82h31q102 0 173.5 -65.5t116.5 -192.5t65.5 -314.5t20.5 -429.5q0 -244 -20.5 -430t-65.5 -313t-116.5 -192.5t-173.5 -65.5h-31v82z" />
<glyph unicode="*" horiz-adv-x="997" d="M119 1284l119 207l231 -221l-10 319l235 -51l-141 -285l301 109l25 -242l-316 45l195 -252l-217 -96l-58 313l-180 -264l-158 178l281 150z" />
<glyph unicode="+" horiz-adv-x="1431" d="M119 717v172h510v510h172v-510h512v-172h-512v-512h-172v512h-510z" />
<glyph unicode="," horiz-adv-x="602" d="M119 213q0 137 125 137h116q123 0 123 -172q0 -248 -204 -248h-84v70h77q84 0 84 78h-96q-141 0 -141 135z" />
<glyph unicode="-" horiz-adv-x="731" d="M78 586v192h575v-192h-575z" />
<glyph unicode="." horiz-adv-x="604" d="M119 133v82q0 137 125 137h118q123 0 123 -133v-86q0 -133 -123 -133h-116q-127 0 -127 133z" />
<glyph unicode="/" horiz-adv-x="864" d="M55 0l652 1589h100l-649 -1589h-103z" />
<glyph unicode="0" horiz-adv-x="1318" d="M133 258v1075q0 70 26.5 122t88 86t163 51.5t248.5 17.5t249 -17.5t163.5 -52.5t88 -88t26.5 -125v-1069q0 -70 -28 -122t-90 -87t-162.5 -52t-246.5 -17q-145 0 -245.5 17t-163 52t-90 87t-27.5 122zM551 274q0 -66 108 -65q109 0 109 65v1039q0 66 -109 65 q-109 0 -108 -65v-1039z" />
<glyph unicode="1" horiz-adv-x="987" d="M119 0v229h170v963h-170v166q281 0 284 231h306v-1360h159v-229h-749z" />
<glyph unicode="2" horiz-adv-x="1271" d="M133 0v487q0 188 70.5 299t236.5 168l191 66q53 18 79.5 47t26.5 88v127q0 96 -182 96q-94 0 -140 -22.5t-46 -75.5v-205h-217v250q0 147 117.5 216t357.5 69q487 0 487 -287v-274q0 -236 -305 -353l-215 -82q-98 -37 -150.5 -97t-52.5 -161v-127q47 59 96.5 82t124.5 23 q37 0 70 -12.5t64.5 -26.5t60.5 -26.5t55 -12.5q31 0 43.5 19.5t12.5 66.5v182h221v-184q0 -160 -59.5 -255t-200.5 -95q-92 0 -153.5 15t-108 34.5t-84 35t-87.5 15.5q-78 0 -133 -90h-180z" />
<glyph unicode="3" horiz-adv-x="1210" d="M115 252v262h217v-217q0 -86 188 -86q180 0 180 86v252q0 86 -25.5 112.5t-78.5 26.5h-186v213h186q53 0 78.5 28.5t25.5 114.5v248q0 86 -176 86q-186 0 -186 -86v-217h-217v262q0 272 475 273q244 0 357.5 -68.5t113.5 -210.5v-282q0 -111 -56.5 -169.5t-166.5 -74.5 q127 -16 180 -75.5t53 -188.5v-283q0 -141 -125 -209.5t-393 -68.5q-215 0 -329.5 67.5t-114.5 204.5z" />
<glyph unicode="4" horiz-adv-x="1253" d="M88 440v246l682 903h375v-231h-115v-690h117v-228h-117v-211h115v-229h-621v229h111v211h-547zM289 668h346v460z" />
<glyph unicode="5" horiz-adv-x="1228" d="M133 344v168h217v-168q0 -133 185 -133q184 0 184 133v324q0 154 -170 153q-78 0 -119 -26.5t-63 -79.5h-222l29 874h232q106 -37 187 -55t171 -18q178 0 319 73v-131q-63 -104 -160.5 -157.5t-209.5 -53.5q-80 0 -160 26.5t-172 84.5l-14 -428q49 37 117.5 53t177.5 16 q102 0 183 -17t136 -57t85 -104.5t30 -158.5v-340q0 -174 -122 -258t-343 -84q-498 0 -498 364z" />
<glyph unicode="6" horiz-adv-x="1241" d="M133 258v1073q0 141 118 210t376 69q244 0 360.5 -67.5t116.5 -205.5v-274h-219v248q0 68 -195 67q-211 0 -211 -67v-422q31 29 99.5 44t160.5 15q377 0 377 -254v-436q0 -141 -122 -209.5t-378 -68.5q-248 0 -365.5 68.5t-117.5 209.5zM479 276q0 -33 40 -49t112 -16 q63 0 100 16.5t37 48.5v388q0 35 -42 53t-112 18q-66 0 -100.5 -18.5t-34.5 -52.5v-388z" />
<glyph unicode="7" horiz-adv-x="1165" d="M92 1098v180q0 168 46 244.5t175 76.5q90 0 151.5 -16t109 -35.5t90.5 -36t96 -16.5q78 0 135 94h180v-188q0 -158 -54 -276.5t-126 -209.5q-45 -57 -77 -109t-51 -111.5t-28.5 -133.5t-9.5 -172v-389h-399v371q0 106 15 190t49 154.5t90.5 136.5t140.5 135q53 45 102 91 t86 92.5t59.5 93.5t22.5 96q-61 -55 -122.5 -81t-151.5 -26q-51 0 -90 12.5t-70 27t-53.5 26.5t-40.5 12q-55 0 -56 -74v-159h-219z" />
<glyph unicode="8" horiz-adv-x="1187" d="M129 258v336q0 162 133 223q-66 33 -91.5 89.5t-25.5 137.5v287q0 70 22.5 122t78 87t148.5 52.5t235 17.5q135 0 217 -17.5t127 -53.5t59.5 -89t14.5 -125v-281q0 -82 -26 -138t-93 -89q135 -66 135 -229v-330q0 -70 -23.5 -122t-84 -87t-161 -52t-253.5 -17 q-412 0 -412 278zM387 274q0 -74 158 -73q139 0 139 71v353q0 76 -139 75q-158 0 -158 -77v-349zM512 1006q0 -72 152 -72q72 0 103.5 17.5t31.5 56.5v299q0 43 -32 61t-103 18q-152 0 -152 -77v-303z" />
<glyph unicode="9" horiz-adv-x="1241" d="M125 831v500q0 141 122 210t378 69q248 0 365.5 -68.5t117.5 -210.5v-1073q0 -141 -118 -209.5t-376 -68.5q-244 0 -360.5 67.5t-116.5 204.5v211h219v-184q0 -68 195 -68q211 0 211 68v358q-31 -29 -99.5 -44t-160.5 -15q-377 0 -377 253zM473 862q0 -35 42 -53t112 -18 q66 0 100.5 18t34.5 53v451q0 33 -40 49t-112 16q-63 0 -100 -16t-37 -49v-451z" />
<glyph unicode=":" horiz-adv-x="604" d="M119 133v82q0 137 125 137h118q123 0 123 -133v-86q0 -133 -123 -133h-116q-127 0 -127 133zM119 739v82q0 137 125 137h118q123 0 123 -133v-86q0 -133 -123 -133h-116q-127 0 -127 133z" />
<glyph unicode=";" horiz-adv-x="602" d="M119 213q0 137 125 137h116q123 0 123 -172q0 -248 -204 -248h-82v70h75q84 0 84 78h-94q-143 0 -143 135zM119 739v82q0 137 125 137h116q123 0 123 -133v-86q0 -133 -123 -133h-114q-127 0 -127 133z" />
<glyph unicode="&#x3c;" horiz-adv-x="1431" d="M119 676v254l1194 389v-193l-1049 -323l1049 -324v-192z" />
<glyph unicode="=" horiz-adv-x="1431" d="M119 471v172h1194v-172h-1194zM119 963v172h1194v-172h-1194z" />
<glyph unicode="&#x3e;" horiz-adv-x="1431" d="M119 287v192l1048 324l-1048 323v193l1194 -389v-254z" />
<glyph unicode="?" horiz-adv-x="1120" d="M78 1075v262q0 272 477 273q485 0 485 -279v-223q0 -111 -44 -202t-150 -140q-61 -29 -106.5 -53.5t-76 -53t-46 -63.5t-15.5 -82v-65h-258v243q0 106 42 164.5t122 104.5q88 47 122 84.5t34 97.5v149q0 86 -181 86q-188 0 -188 -86v-217h-217zM289 133v82q0 137 125 137 h116q123 0 123 -133v-86q0 -133 -123 -133h-114q-127 0 -127 133z" />
<glyph unicode="@" horiz-adv-x="1413" d="M119 109v946q0 82 28.5 144.5t96 103t177 61t271.5 20.5t275.5 -20.5t186.5 -62t106.5 -105t33.5 -147.5v-748q0 -31 -9 -56.5t-36.5 -44t-81 -27.5t-139.5 -9q-76 0 -121 5t-71.5 14.5t-37 22.5t-14.5 27q-25 -29 -69.5 -49t-116.5 -20q-78 0 -118 38t-40 103v504 q0 86 40 134t118 48q72 0 115 -20.5t59 -48.5v63h229v-631q0 -53 72 -53q68 0 68 51v717q0 92 -107.5 127t-341.5 35q-115 0 -193.5 -8.5t-127.5 -26.5t-72 -50t-23 -77v-971q0 -96 90.5 -128.5t272.5 -32.5h365v-158h-461q-424 0 -424 330zM670 403q0 -43 51 -43 q47 0 51 35v408q-4 35 -51 35q-51 0 -51 -37v-398z" />
<glyph unicode="A" horiz-adv-x="1445" d="M39 0v231h156l288 1358h463l332 -1358h129v-231h-637v231h76l-31 166h-321l-33 -166h84v-231h-506zM528 596h248l-121 657z" />
<glyph unicode="B" horiz-adv-x="1400" d="M119 0v229h108v1129h-108v231h866q272 0 272 -205v-372q0 -86 -43 -135.5t-120 -63.5q90 -10 134 -55t44 -135v-383q0 -129 -72 -184.5t-215 -55.5h-866zM645 229h141q55 0 56 68v344q0 59 -56 59h-141v-471zM645 913h141q55 0 56 60v319q0 66 -56 66h-141v-445z" />
<glyph unicode="C" horiz-adv-x="1247" d="M133 279v1036q0 154 103.5 224.5t312.5 70.5q150 0 241 -44t125 -110v133h220v-514h-217v236q0 35 -46.5 55t-140.5 20q-92 0 -132 -22.5t-40 -67.5v-989q0 -51 40 -73.5t132 -22.5q94 0 140.5 19.5t46.5 52.5v241h217v-260q0 -141 -131.5 -212.5t-364.5 -71.5 q-268 0 -387 71.5t-119 227.5z" />
<glyph unicode="D" horiz-adv-x="1404" d="M119 0v229h108v1129h-108v231h807q94 0 159.5 -14t106.5 -50t60.5 -97.5t19.5 -155.5v-973q0 -86 -18.5 -144.5t-59.5 -92t-105.5 -48t-156.5 -14.5h-813zM655 229h97q53 0 71.5 21.5t18.5 81.5v930q0 55 -18.5 75.5t-71.5 20.5h-97v-1129z" />
<glyph unicode="E" horiz-adv-x="1396" d="M119 0v229h108v1129h-108v231h1149v-514h-219v275h-394v-449h123v234h166v-670h-166v223h-123v-450h404v286h219v-524h-1159z" />
<glyph unicode="F" horiz-adv-x="1333" d="M119 0v229h104v1129h-104v231h1159v-514h-219v283h-408v-473h127v231h166v-670h-166v224h-127v-441h125v-229h-657z" />
<glyph unicode="G" horiz-adv-x="1298" d="M133 279v1036q0 154 103.5 224.5t312.5 70.5q150 0 241 -44t125 -110v133h220v-514h-217v236q0 35 -46.5 55t-140.5 20q-92 0 -132 -22.5t-40 -67.5v-977q0 -49 28.5 -68.5t90.5 -19.5q131 0 131 66v240h-113v163h521v-163h-78v-537h-199l-35 129q-14 -27 -40.5 -53.5 t-66.5 -48t-96.5 -34.5t-130.5 -13q-221 0 -329.5 78.5t-108.5 220.5z" />
<glyph unicode="H" horiz-adv-x="1619" d="M119 0v229h108v1129h-108v231h639v-231h-103v-457h316v457h-99v231h629v-231h-112v-1129h112v-229h-629v229h99v459h-316v-459h103v-229h-639z" />
<glyph unicode="I" horiz-adv-x="897" d="M129 0v229h104v1129h-104v231h639v-231h-106v-1129h106v-229h-639z" />
<glyph unicode="J" horiz-adv-x="1126" d="M82 258v266h219v-248q0 -65 104 -65h3q96 0 96 78v1069h-135v231h684v-231h-121v-1100q0 -278 -444 -278h-3q-403 0 -403 278z" />
<glyph unicode="K" horiz-adv-x="1568" d="M119 0v229h104v1129h-104v231h639v-231h-107v-381l375 381h-149v231h593v-231h-153l-309 -309l401 -820h84v-229h-616v229h100l-240 549l-86 -92v-457h107v-229h-639z" />
<glyph unicode="L" d="M119 0v229h104v1129h-104v231h655v-231h-123v-1120h252v286h217v-524h-1001z" />
<glyph unicode="M" horiz-adv-x="1869" d="M106 0v229h109v1129h-109v231h633l222 -874l262 874h536v-231h-108v-1129h108v-229h-600v229h109v963l-353 -1192h-161l-361 1192v-963h113v-229h-400z" />
<glyph unicode="N" horiz-adv-x="1427" d="M111 0v229h108v1129h-108v231h407l535 -817v586h-127v231h420v-231h-113v-1358h-203l-633 963v-734h113v-229h-399z" />
<glyph unicode="O" horiz-adv-x="1353" d="M133 258v1073q0 70 27.5 122t92 87t169 52.5t258.5 17.5t257 -17.5t165.5 -53.5t90.5 -89t28 -125v-1067q0 -70 -27 -122t-90.5 -87t-166.5 -52t-257 -17t-258.5 17t-169 52t-92 87t-27.5 122zM557 274q0 -33 28.5 -49t94.5 -16q125 0 125 65v1037q0 65 -121 65h-4 q-66 0 -94.5 -16.5t-28.5 -48.5v-1037z" />
<glyph unicode="P" horiz-adv-x="1341" d="M119 1358v231h866q143 0 215 -55t72 -184v-396q0 -280 -285 -280h-2h-334v-445h99v-229h-623v229h96v1129h-104zM651 893h135q55 0 56 59v340q0 66 -56 66h-135v-465z" />
<glyph unicode="Q" horiz-adv-x="1353" d="M133 299v1032q0 70 27.5 122t92 87t169 52.5t258.5 17.5t257 -17.5t165.5 -53.5t90.5 -89t28 -125v-1026q0 -109 -67 -174.5t-232 -89.5q14 -45 40.5 -70.5t77.5 -25.5q53 0 80 17t43 62l117 -59q-23 -90 -85 -151.5t-189 -61.5q-74 0 -124.5 23.5t-83 61.5t-50 87 t-21.5 102h-47q-154 0 -258.5 17.5t-169 52.5t-92 87t-27.5 122zM555 305q0 -65 121 -65h4h31q-10 72 -38 102.5t-87 30.5q-16 0 -31 -8v-60zM555 514q12 4 21.5 5t21.5 1q74 0 124 -25.5t85 -70.5v887q0 65 -123 65h-4q-125 0 -125 -65v-797z" />
<glyph unicode="R" horiz-adv-x="1523" d="M119 0v229h104v1129h-104v231h866q143 0 209 -50t66 -155v-340q0 -72 -16.5 -117.5t-44.5 -73.5t-66.5 -40t-83.5 -18q43 -4 84 -13.5t71.5 -33t49 -62.5t18.5 -102v-373q0 -33 35 -33t34 33v385h127v-418q0 -49 -14 -87t-50 -62.5t-97.5 -36.5t-155.5 -12 q-88 0 -145.5 12t-91 36.5t-47 61.5t-13.5 86v453q0 59 -55 59h-148v-459h97v-229h-629zM651 901h135q55 0 56 60v331q0 66 -56 66h-135v-457z" />
<glyph unicode="S" horiz-adv-x="1216" d="M100 0v524h217v-159q0 -66 57.5 -110t172.5 -44q117 0 161 37t44 90v80q0 47 -11.5 79.5t-40 56.5t-79 44t-127.5 43q-109 31 -180.5 64.5t-114.5 77.5t-60.5 103.5t-17.5 141.5v283q0 141 98 220t309 79q150 0 236 -44t121 -110v133h221v-514h-219v142q0 72 -49.5 116.5 t-165.5 44.5q-117 0 -161 -31.5t-44 -76.5v-92q0 -41 11 -71t41 -52.5t83 -41t139 -38.5q106 -25 178 -57.5t115 -78.5t61.5 -110.5t18.5 -155.5v-272q0 -158 -103.5 -239.5t-314.5 -81.5q-80 0 -141 14t-107.5 36.5t-77 49t-51.5 53.5v-133h-219z" />
<glyph unicode="T" horiz-adv-x="1282" d="M55 1075v514h1172v-514h-219v283h-154v-1129h113v-229h-652v229h111v1129h-154v-283h-217z" />
<glyph unicode="U" horiz-adv-x="1470" d="M82 1358v231h647v-231h-108v-1024q0 -63 45 -94t149 -31t146.5 30.5t42.5 94.5v1024h-111v231h487v-231h-118v-1102q0 -70 -22.5 -121t-79 -86t-154 -52t-246.5 -17q-156 0 -263.5 17t-175 52t-97 87t-29.5 122v1100h-113z" />
<glyph unicode="V" horiz-adv-x="1449" d="M41 1358v231h635v-231h-84l199 -1069l206 1069h-94v231h506v-231h-156l-309 -1358h-461l-352 1358h-90z" />
<glyph unicode="W" horiz-adv-x="2162" d="M41 1358v231h586v-231h-78l174 -1059l229 1059h-92v231h572v-231h-95l217 -1059l191 1059h-92v231h469v-231h-127l-256 -1358h-484l-163 881l-185 -881h-497l-281 1358h-88z" />
<glyph unicode="X" horiz-adv-x="1452" d="M51 0v229h121l371 553l-365 576h-123v231h672v-231h-88l176 -332l201 332h-88v231h473v-231h-144l-333 -508l383 -621h94v-229h-656v229h113l-205 371l-215 -371h113v-229h-500z" />
<glyph unicode="Y" horiz-adv-x="1419" d="M41 1358v231h694v-231h-135l217 -504l227 504h-143v231h477v-231h-110l-342 -733v-396h118v-229h-657v229h115v396l-373 733h-88z" />
<glyph unicode="Z" horiz-adv-x="1273" d="M102 0v229l643 1141h-462v-178h-168v397h1054v-237l-624 -1143h452v188h170v-397h-1065z" />
<glyph unicode="[" horiz-adv-x="665" d="M266 18v1530q0 238 160 238q51 0 121 -17v-81q-121 -10 -121 -82v-1641q0 -74 121 -84v-94q-25 -2 -49.5 -3t-51.5 -1q-180 0 -180 235z" />
<glyph unicode="\" horiz-adv-x="851" d="M51 1589h103l649 -1589h-101z" />
<glyph unicode="]" horiz-adv-x="669" d="M119 -119q121 10 121 84v1641q0 72 -121 82v81q70 16 121 17q160 0 159 -238v-1530q0 -236 -180 -235q-27 0 -51.5 1t-48.5 3v94z" />
<glyph unicode="^" horiz-adv-x="970" d="M119 854l239 735h254l240 -735h-184l-183 590l-182 -590h-184z" />
<glyph unicode="_" horiz-adv-x="921" d="M0 -164h926v-151h-926v151z" />
<glyph unicode="`" horiz-adv-x="778" d="M61 1565h412l244 -301h-223z" />
<glyph unicode="a" horiz-adv-x="1220" d="M133 238v682q0 137 70.5 214.5t214.5 77.5q98 0 162.5 -34.5t91.5 -81.5v96h407v-1192h-200q-139 0 -179 92q-35 -49 -103.5 -80.5t-170.5 -31.5q-293 0 -293 258zM551 309q0 -65 55 -65h2q53 0 54 65v596q0 57 -56 58q-55 0 -55 -58v-596z" />
<glyph unicode="b" horiz-adv-x="1212" d="M39 1352v237h516v-473q49 96 242 96q287 0 286 -272v-731q0 -123 -71.5 -176t-214.5 -53q-113 0 -172.5 28.5t-79.5 71.5v-80h-408v1352h-98zM555 324q0 -66 53 -66q55 0 56 66v587q0 57 -56 58q-53 0 -53 -58v-587z" />
<glyph unicode="c" d="M129 274v639q0 156 110.5 227.5t360.5 71.5q252 0 360.5 -70.5t108.5 -213.5v-250h-414v237q0 66 -55 66q-53 0 -53 -66v-639q0 -65 51 -65h2q55 0 55 65v248h418v-266q0 -139 -111.5 -208.5t-361.5 -69.5t-360.5 71.5t-110.5 222.5z" />
<glyph unicode="d" horiz-adv-x="1216" d="M129 205v715q0 137 70.5 214.5t214.5 77.5q98 0 158.5 -32.5t84.5 -83.5v256h-96v237h514v-1589h-201q-139 0 -178 92q-35 -49 -104.5 -80.5t-177.5 -31.5q-143 0 -214 60t-71 165zM547 309q0 -65 55 -65h2q53 0 53 65v596q0 57 -55 58q-55 0 -55 -58v-596z" />
<glyph unicode="e" d="M129 258v664q0 150 110.5 220t360.5 70q252 0 362.5 -70.5t110.5 -213.5v-363h-526v-289q0 -65 69 -65h2q76 0 76 65v203h379v-221q0 -141 -108.5 -209.5t-346.5 -68.5q-264 0 -376.5 69.5t-112.5 208.5zM547 709h108v206q0 66 -55 66q-53 0 -53 -66v-206z" />
<glyph unicode="f" horiz-adv-x="917" d="M31 954v238h110v139q0 279 416 279q90 0 151.5 -17.5t98.5 -51.5t53.5 -84t16.5 -114v-43h-209v25q0 31 -13.5 43t-38.5 12q-57 0 -57 -59v-129h217v-238h-217v-954h-418v954h-110z" />
<glyph unicode="g" horiz-adv-x="1216" d="M129 324v596q0 137 70.5 214.5t214.5 77.5q98 0 162.5 -34.5t91.5 -81.5v96h407v-1296q0 -160 -116.5 -226.5t-354.5 -66.5q-244 0 -349 69.5t-105 208.5v72h278v-55q0 -66 117 -66q113 0 112 64v239q-41 -33 -99 -51t-136 -18q-293 0 -293 258zM547 377q0 -66 57 -66 q53 0 53 66v528q0 57 -55 58q-55 0 -55 -58v-528z" />
<glyph unicode="h" horiz-adv-x="1228" d="M39 1352v237h526v-477q25 41 84.5 70.5t157.5 29.5q143 0 214 -56t71 -191v-965h-418v854q0 66 -56 66q-53 0 -53 -66v-854h-418v1352h-108z" />
<glyph unicode="i" horiz-adv-x="718" d="M39 954v238h526v-1192h-418v954h-108zM131 1411v41q0 137 127 137h197q123 0 123 -133v-45q0 -133 -123 -133h-195q-129 0 -129 133z" />
<glyph unicode="j" horiz-adv-x="792" d="M-20 -39h251v-63q0 -66 56 -66q53 0 53 66q0 41 -18.5 77.5t-41 74.5t-41 80t-18.5 91v733h-135v238h553v-1311q0 -141 -79 -209.5t-253 -68.5q-178 0 -252.5 69.5t-74.5 208.5v80zM205 1411v41q-2 137 127 137h196q123 0 123 -133v-45q0 -133 -123 -133h-196 q-127 0 -127 133z" />
<glyph unicode="k" horiz-adv-x="1261" d="M39 1352v237h526v-893l256 258h-102v238h463v-238h-135l-146 -143l322 -811h-439l-182 512l-37 -37v-475h-418v1352h-108z" />
<glyph unicode="l" horiz-adv-x="704" d="M39 1352v237h526v-1589h-418v1352h-108z" />
<glyph unicode="m" horiz-adv-x="1693" d="M39 954v238h496v-80q33 41 93 70.5t158 29.5q80 0 144.5 -23.5t95.5 -76.5q72 100 266 100q143 0 203.5 -56t60.5 -191v-965h-397v854q0 66 -55 66q-53 0 -53 -66v-854h-398v854q0 66 -55 66q-53 0 -53 -66v-854h-398v954h-108z" />
<glyph unicode="n" horiz-adv-x="1228" d="M39 954v238h516v-80q33 41 93.5 70.5t158.5 29.5q143 0 214 -56t71 -191v-965h-418v854q0 66 -56 66q-53 0 -53 -66v-854h-418v954h-108z" />
<glyph unicode="o" d="M129 258v676q0 141 110.5 209.5t360.5 68.5q252 0 362.5 -70.5t110.5 -213.5v-670q0 -139 -111.5 -208.5t-361.5 -69.5t-360.5 69.5t-110.5 208.5zM547 274q0 -65 51 -65h2q55 0 55 65v641q0 66 -55 66q-53 0 -53 -66v-641z" />
<glyph unicode="p" horiz-adv-x="1226" d="M39 -139h108v1093h-108v238h516v-80q35 41 94.5 70.5t157.5 29.5q287 0 287 -204v-736q0 -137 -74 -204.5t-232 -67.5q-33 0 -66.5 3t-64 7t-54 10.5t-38.5 12.5v-172h90v-238h-616v238zM565 307q0 -57 53 -57q55 0 56 57v547q0 66 -56 66q-53 0 -53 -66v-547z" />
<glyph unicode="q" horiz-adv-x="1212" d="M129 272v736q0 204 284 204h3q98 0 157.5 -29.5t94.5 -70.5v80h407v-1331h99v-238h-607v238h90v172q-14 -6 -37.5 -12.5t-54 -10.5t-64.5 -7t-67 -3q-158 0 -231.5 67.5t-73.5 204.5zM549 307q0 -57 55 -57q53 0 53 57v547q0 66 -53 66q-55 0 -55 -66v-547z" />
<glyph unicode="r" horiz-adv-x="1134" d="M39 954v238h516v-80q29 39 91.5 69.5t160.5 30.5q143 0 203.5 -60t60.5 -165v-309h-397v176q0 66 -56 66q-53 0 -53 -66v-854h-418v954h-108z" />
<glyph unicode="s" horiz-adv-x="1140" d="M111 264v117h354v-105q0 -65 93 -65h3q94 0 94 65v89q0 49 -45 69.5t-137 30.5q-100 12 -167.5 30.5t-108.5 48t-58.5 72.5t-17.5 105v213q0 70 21.5 122t74.5 87t141 52t224 17q131 0 217 -17t135 -53t68.5 -89.5t19.5 -124.5v-113h-346v100q0 66 -94 66t-95 -66v-84 q0 -55 51.5 -74.5t122 -26.5t146.5 -15t125 -39q100 -63 100 -201v-217q0 -70 -23.5 -122t-76.5 -87t-141.5 -52t-219.5 -17q-135 0 -224 17t-141 53t-73.5 89.5t-21.5 124.5z" />
<glyph unicode="t" horiz-adv-x="851" d="M31 954v238h39q137 0 195.5 57.5t58.5 198.5v141h235v-397h156v-238h-156v-743q0 -33 35 -33q37 0 37 33v385h127v-418q0 -49 -14.5 -87t-49.5 -62.5t-93 -36.5t-148 -12q-88 0 -147.5 12t-96.5 36.5t-52.5 61.5t-15.5 86v778h-110z" />
<glyph unicode="u" horiz-adv-x="1212" d="M39 954v238h506v-883q0 -65 51 -65h2q57 0 57 65v883h416v-1192h-217q-139 0 -182 96q-39 -47 -103.5 -81.5t-156.5 -34.5q-283 0 -283 204v770h-90z" />
<glyph unicode="v" horiz-adv-x="1144" d="M41 954v238h485l138 -893l108 655h-104v238h436v-238h-115l-182 -954h-463l-225 954h-78z" />
<glyph unicode="w" horiz-adv-x="1800" d="M41 954v238h485l129 -873l125 635h-102v238h479l156 -873l98 635h-102v238h450v-238h-131l-172 -954h-403l-121 750l-154 -750h-448l-211 954h-78z" />
<glyph unicode="x" horiz-adv-x="1101" d="M41 0l311 586l-184 368h-109v238h439l141 -313l141 313h250v-238h-137l-150 -290l304 -664h-431l-139 338l-166 -338h-270z" />
<glyph unicode="y" horiz-adv-x="1286" d="M41 954v238h489l213 -903l152 665h-113v238h463v-238h-100l-246 -1073q-33 -141 -123 -209.5t-229 -68.5q-303 0 -303 311h254q0 -41 15 -61.5t56 -20.5q33 0 49.5 19.5t26.5 60.5l43 168h-266l-299 874h-82z" />
<glyph unicode="z" horiz-adv-x="1062" d="M94 0v250l410 723h-240v-178h-170v397h873v-154l-428 -829h260v188h168v-397h-873z" />
<glyph unicode="{" horiz-adv-x="751" d="M172 791l158 256q-29 80 -45.5 161.5t-16.5 151.5q0 102 24.5 182t70 134.5t105.5 82t134 27.5h31v-82q-41 0 -80 -18.5t-68.5 -57.5t-48 -97t-18.5 -140q0 -131 47 -344l-158 -252l160 -256q-49 -147 -49 -277q0 -90 19.5 -160.5t50 -120t68.5 -77t77 -29.5v-94 q-78 0 -144.5 33.5t-115.5 97t-77 157t-28 210.5q0 66 14.5 133t47.5 135z" />
<glyph unicode="|" horiz-adv-x="858" d="M342 -219v2005h172v-2005h-172z" />
<glyph unicode="}" horiz-adv-x="751" d="M119 -125q39 2 76.5 29.5t68.5 77t50.5 120t19.5 160.5q0 129 -49 277l159 256l-157 252q47 213 47 344q0 82 -18.5 140t-48 97t-68.5 57.5t-80 18.5v82h31q74 0 134 -27.5t105 -82t69.5 -134.5t24.5 -182q0 -70 -16 -152t-45 -161l158 -256l-158 -244q33 -68 47 -135.5 t14 -132.5q0 -117 -28.5 -210.5t-77.5 -157t-115.5 -97t-142.5 -33.5v94z" />
<glyph unicode="~" horiz-adv-x="1431" d="M119 664v159q98 123 334 123q80 0 149.5 -19.5t133 -43t124 -43t123.5 -19.5q59 0 105.5 6.5t84 19.5t70.5 33.5t70 49.5v-166q-102 -115 -334 -115q-84 0 -154.5 19.5t-134 44t-122 44t-119.5 19.5q-76 0 -156 -20.5t-174 -91.5z" />
<glyph unicode="&#xa1;" horiz-adv-x="667" d="M146 0v684l121 456h139l119 -454v-686h-379zM154 1370v86q0 133 123 133h117q127 0 126 -133v-82q0 -137 -124 -137h-119q-123 0 -123 133z" />
<glyph unicode="&#xa2;" horiz-adv-x="1191" d="M133 479v639q0 147 99.5 219t322.5 78v174h104v-174q221 -8 317.5 -78.5t96.5 -203.5v-250h-414v237q0 66 -55 66q-53 0 -53 -66v-639q0 -66 53 -65q55 0 55 65v248h418v-266q0 -133 -98 -201.5t-320 -77.5v-184h-104v184q-225 8 -323.5 79t-98.5 216z" />
<glyph unicode="&#xa3;" horiz-adv-x="1388" d="M61 121q0 51 21.5 87t59.5 58.5t89.5 32.5t110.5 12q84 188 90 363h-166l37 155h129q-4 59 -8 119t-4 123q0 119 19.5 218.5t76.5 170t161.5 110.5t274.5 40q305 0 305 -254v-164h-276v123q0 33 -10 49t-39 16q-25 0 -47.5 -17t-38.5 -91q-20 -100 -35.5 -214t-32.5 -229 h232l-37 -155h-223q-25 -123 -65 -217.5t-73 -134.5q68 -4 122 -17.5t100.5 -27t86.5 -23.5t78 -10q39 0 52.5 24.5t13.5 73.5v182h221v-202q0 -182 -50 -262t-175 -80q-84 0 -143.5 10t-103.5 25.5t-79 34t-70.5 35.5t-76.5 30.5t-99 19.5q-20 -31 -45.5 -58.5t-58.5 -49 t-74 -34.5t-90 -13q-45 0 -75.5 12t-49 31.5t-27 45t-8.5 52.5zM203 160q0 -25 26 -25q16 0 34 11t26 38q-23 6 -45 6q-23 0 -32 -9t-9 -21z" />
<glyph unicode="&#xa4;" horiz-adv-x="1667" d="M190 211l140 139q-123 158 -123 371q0 106 33.5 200.5t95.5 172.5l-146 145l146 145l153 -153q78 49 170.5 75.5t194.5 26.5q100 0 191.5 -26.5t166.5 -73.5l152 151l145 -145l-143 -143q61 -76 95 -170.5t34 -204.5q0 -106 -32.5 -199.5t-92.5 -171.5l139 -139 l-145 -145l-147 147q-76 -47 -167.5 -71.5t-195.5 -24.5q-109 0 -201 24.5t-170 71.5l-147 -147zM375 721q0 -111 41 -197t107.5 -146.5t152.5 -91t178 -30.5q119 0 208 42t147.5 107.5t88 148.5t29.5 167q0 109 -40 194.5t-106.5 145t-151.5 91.5t-175 32 q-106 0 -194.5 -36t-152 -98.5t-98 -146.5t-34.5 -182z" />
<glyph unicode="&#xa5;" horiz-adv-x="1282" d="M78 1358v231h588v-231h-121l190 -506l195 506h-123v231h405v-231h-94l-241 -604h239v-129h-291v-183h291v-131h-291v-311h-354v311h-274v131h274v183h-274v129h217l-262 604h-74z" />
<glyph unicode="&#xa6;" horiz-adv-x="858" d="M342 -219v883h172v-883h-172zM342 881v905h172v-905h-172z" />
<glyph unicode="&#xa7;" horiz-adv-x="1028" d="M119 27h278v-123q0 -88 97 -88q96 0 96 88v164q0 61 -42 85.5t-128 36.5q-84 12 -139.5 31t-90 48.5t-49 73.5t-14.5 106v264q0 80 42 132t128 64q-43 8 -71.5 27.5t-46 45.5t-23.5 54.5t-6 53.5v239q0 70 17 123t61 88t119 52.5t188 17.5q111 0 181 -17.5t111 -53.5 t57.5 -90t16.5 -126v-135h-272v121q0 88 -94 88t-95 -88v-162q0 -61 35 -85t87 -34t112.5 -15t113 -26.5t87 -72t34.5 -148.5v-223q0 -113 -36.5 -167t-96.5 -63q8 -12 27.5 -33.5t38 -47t33 -53t14.5 -54.5v-242q0 -72 -19.5 -124t-64.5 -86.5t-119 -52t-182 -17.5 q-115 0 -188.5 17.5t-117.5 53t-61.5 90t-17.5 125.5v138zM418 498q0 -88 98 -88q96 0 96 88v217q0 88 -100 88q-94 0 -94 -88v-217z" />
<glyph unicode="&#xa8;" horiz-adv-x="878" d="M61 1399v33q0 113 95 112h102q90 0 90 -108v-37q0 -111 -90 -111h-100q-96 0 -97 111zM530 1399v33q0 113 95 112h100q92 0 92 -108v-37q0 -111 -92 -111h-98q-96 0 -97 111z" />
<glyph unicode="&#xaa;" horiz-adv-x="794" d="M135 745v375q0 76 39 119t117 43q53 0 89 -19.5t50 -45.5v53h225v-656h-110q-78 0 -99 52q-18 -29 -56 -46.5t-95 -17.5q-160 0 -160 143zM365 784q0 -37 30 -36q31 0 31 36v328q0 31 -31 31t-30 -31v-328z" />
<glyph unicode="&#xab;" horiz-adv-x="1126" d="M78 608v154l407 403v-252l-231 -229l231 -229v-254zM641 608v154l407 403v-252l-231 -229l231 -229v-254z" />
<glyph unicode="&#xac;" horiz-adv-x="1228" d="M106 625v204h1010v-829h-262v625h-748z" />
<glyph unicode="&#xad;" horiz-adv-x="731" d="M78 586v192h575v-192h-575z" />
<glyph unicode="&#xaf;" horiz-adv-x="780" d="M61 1331v168h658v-168h-658z" />
<glyph unicode="&#xb0;" horiz-adv-x="763" d="M119 1364q0 246 264 246q262 0 262 -246q0 -252 -262 -252q-264 0 -264 252zM221 1364q0 -162 162 -162q160 0 160 162q0 156 -160 156q-162 0 -162 -156z" />
<glyph unicode="&#xb1;" horiz-adv-x="1431" d="M119 -57v172h1194v-172h-1194zM119 717v172h510v510h172v-510h512v-172h-512v-512h-172v512h-510z" />
<glyph unicode="&#xb2;" horiz-adv-x="696" d="M96 816v243q0 92 35 148.5t119 85.5l96 32q27 10 40 24.5t13 43.5v64q0 47 -92 47t-92 -50v-102h-109v125q0 143 238 143q244 0 244 -143v-137q0 -119 -154 -176l-106 -41q-49 -18 -76 -49t-27 -80v-64q25 29 49.5 40t61.5 11t67.5 -19.5t57.5 -19.5q29 0 28 44v92h111 v-92q0 -80 -29.5 -128.5t-101.5 -48.5q-47 0 -77 8.5t-53.5 17.5t-41.5 17.5t-43 8.5q-39 0 -68 -45h-90z" />
<glyph unicode="&#xb3;" horiz-adv-x="665" d="M88 940v132h109v-109q0 -43 94 -43q90 0 90 43v127q0 43 -13.5 56.5t-39.5 13.5h-92v106h92q27 0 40 14.5t13 57.5v123q0 43 -88 43q-94 0 -94 -43v-109h-109v131q0 137 238 137q123 0 179 -34.5t56 -104.5v-141q0 -55 -28.5 -84t-81.5 -39q63 -8 89.5 -37t26.5 -94v-141 q0 -72 -62.5 -106t-197.5 -34q-106 0 -163.5 34t-57.5 101z" />
<glyph unicode="&#xb4;" horiz-adv-x="778" d="M61 1264l244 301h412l-432 -301h-224z" />
<glyph unicode="&#xb6;" horiz-adv-x="1107" d="M74 1290q0 299 272 299h653v-231h-112v-1589h-162v1589h-174v-1589h-162v1224h-43q-272 0 -272 297z" />
<glyph unicode="&#xb7;" horiz-adv-x="604" d="M119 748v81q0 137 125 138h118q123 0 123 -133v-86q0 -133 -123 -134h-116q-127 0 -127 134z" />
<glyph unicode="&#xb8;" horiz-adv-x="417" d="M61 -158q0 117 101 117h94q100 0 100 -145q0 -211 -166 -211h-67v82h63q51 0 52 51h-62q-57 0 -86 24.5t-29 81.5z" />
<glyph unicode="&#xb9;" horiz-adv-x="555" d="M90 816v114h84v481h-84v82q141 0 141 117h154v-680h80v-114h-375z" />
<glyph unicode="&#xba;" horiz-adv-x="784" d="M133 756v372q0 78 60.5 116t197.5 38q139 0 199.5 -40t60.5 -118v-368q0 -78 -60.5 -116t-199.5 -38t-198.5 38t-59.5 116zM362 766q0 -37 29 -37q31 0 31 37v352q0 35 -31 35q-29 0 -29 -35v-352z" />
<glyph unicode="&#xbb;" horiz-adv-x="1126" d="M78 201v254l231 229l-231 229v252l407 -403v-154zM641 201v254l231 229l-231 229v252l407 -403v-154z" />
<glyph unicode="&#xbc;" horiz-adv-x="1722" d="M133 -61l1212 1712h182l-1210 -1712h-184zM170 816v114h84v481h-84v82q141 0 141 117h154v-680h80v-114h-375zM1059 199v123l342 452h186v-117h-57v-344h59v-114h-59v-105h57v-114h-309v114h55v105h-274zM1159 313h174v230z" />
<glyph unicode="&#xbd;" horiz-adv-x="1738" d="M133 -61l1212 1712h182l-1210 -1712h-184zM170 816v114h84v481h-84v82q141 0 141 117h154v-680h80v-114h-375zM1102 -20v243q0 92 35 148.5t119 85.5l96 32q27 10 40 24.5t13 43.5v64q0 47 -92 47t-92 -50v-102h-109v125q0 143 238 143q244 0 244 -143v-137 q0 -119 -154 -176l-106 -41q-49 -18 -76 -49t-27 -80v-64q25 29 49.5 40t61.5 11t67.5 -19.5t57.5 -19.5q29 0 28 44v92h111v-92q0 -80 -29.5 -128.5t-101.5 -48.5q-47 0 -77 8.5t-53.5 17.5t-41.5 17.5t-43 8.5q-39 0 -68 -45h-90z" />
<glyph unicode="&#xbe;" horiz-adv-x="1695" d="M133 940v132h109v-109q0 -43 94 -43q90 0 90 43v127q0 43 -13.5 56.5t-39.5 13.5h-92v106h92q27 0 40 14.5t13 57.5v123q0 43 -88 43q-94 0 -94 -43v-109h-109v131q0 137 238 137q123 0 179 -34.5t56 -104.5v-141q0 -55 -28.5 -84t-81.5 -39q63 -8 89.5 -37t26.5 -94 v-141q0 -72 -62.5 -106t-197.5 -34q-106 0 -163.5 34t-57.5 101zM168 -61l1212 1712h182l-1210 -1712h-184zM1032 199v123l342 452h186v-117h-57v-344h59v-114h-59v-105h57v-114h-309v114h55v105h-274zM1132 313h174v230z" />
<glyph unicode="&#xbf;" horiz-adv-x="1120" d="M78 258v223q0 111 44 202t150 140q61 29 106.5 53.5t76 53t46 63.5t15.5 82v65h258v-243q0 -106 -42 -164.5t-122 -104.5q-88 -47 -122 -84.5t-34 -97.5v-149q0 -86 181 -86q188 0 188 86v217h217v-262q0 -272 -477 -273q-485 0 -485 279zM465 1370v86q0 133 123 133h114 q127 0 127 -133v-82q0 -137 -125 -137h-116q-123 0 -123 133z" />
<glyph unicode="&#xc0;" horiz-adv-x="1445" d="M39 0v231h156l288 1358h463l332 -1358h129v-231h-637v231h76l-31 166h-321l-33 -166h84v-231h-506zM333 1962h412l244 -301h-223zM528 596h248l-121 657z" />
<glyph unicode="&#xc1;" horiz-adv-x="1445" d="M39 0v231h156l288 1358h463l332 -1358h129v-231h-637v231h76l-31 166h-321l-33 -166h84v-231h-506zM456 1661l244 301h412l-432 -301h-224zM528 596h248l-121 657z" />
<glyph unicode="&#xc2;" horiz-adv-x="1445" d="M39 0v231h156l288 1358h463l332 -1358h129v-231h-637v231h76l-31 166h-321l-33 -166h84v-231h-506zM327 1661l273 301h248l270 -301h-342l-117 151l-117 -151h-215zM528 596h248l-121 657z" />
<glyph unicode="&#xc3;" horiz-adv-x="1445" d="M39 0v231h156l288 1358h463l332 -1358h129v-231h-637v231h76l-31 166h-321l-33 -166h84v-231h-506zM376 1681v100q0 76 42 120t130 44q68 0 120.5 -18.5t94 -41t77.5 -40.5t71 -18q33 0 44 16t11 51v43h101v-84q0 -182 -138 -182q-88 0 -148 18.5t-104.5 41t-77 41 t-65.5 18.5q-31 0 -40 -15.5t-9 -50.5v-43h-109zM528 596h248l-121 657z" />
<glyph unicode="&#xc4;" horiz-adv-x="1445" d="M39 0v231h156l288 1358h463l332 -1358h129v-231h-637v231h76l-31 166h-321l-33 -166h84v-231h-506zM344 1796v33q0 113 95 112h102q90 0 90 -108v-37q0 -111 -90 -111h-100q-96 0 -97 111zM528 596h248l-121 657zM813 1796v33q0 113 95 112h100q92 0 92 -108v-37 q0 -111 -92 -111h-98q-96 0 -97 111z" />
<glyph unicode="&#xc5;" horiz-adv-x="1445" d="M39 0v231h156l288 1358h463l332 -1358h129v-231h-637v231h76l-31 166h-321l-33 -166h84v-231h-506zM528 596h248l-121 657zM540 1788q0 74 52.5 124t132.5 50q78 0 128 -50t50 -124q0 -72 -50 -122t-128 -50q-80 0 -132.5 50t-52.5 122zM618 1788q0 -43 30 -71t77 -28 q43 0 72.5 28t29.5 71t-29.5 70.5t-72.5 27.5q-47 0 -77 -27.5t-30 -70.5z" />
<glyph unicode="&#xc6;" horiz-adv-x="2037" d="M39 0v231h137l457 1127h-160v231h1446v-514h-217v283h-416v-457h133v234h166v-670h-166v223h-133v-459h416v295h217v-524h-1159v229h108v459h-243l-174 -457h94v-231h-506zM700 901h168v432z" />
<glyph unicode="&#xc7;" horiz-adv-x="1247" d="M133 279v1036q0 154 103.5 224.5t312.5 70.5q150 0 241 -44t125 -110v133h220v-514h-217v236q0 35 -46.5 55t-140.5 20q-92 0 -132 -22.5t-40 -67.5v-989q0 -51 40 -73.5t132 -22.5q94 0 140.5 19.5t46.5 52.5v241h217v-260q0 -141 -131.5 -212.5t-364.5 -71.5 q-268 0 -387 71.5t-119 227.5zM495 -158q0 117 101 117h94q100 0 100 -145q0 -211 -166 -211h-67v82h63q51 0 52 51h-62q-57 0 -86 24.5t-29 81.5z" />
<glyph unicode="&#xc8;" horiz-adv-x="1396" d="M119 0v229h108v1129h-108v231h1149v-514h-219v275h-394v-449h123v234h166v-670h-166v223h-123v-450h404v286h219v-524h-1159zM309 1962h412l244 -301h-223z" />
<glyph unicode="&#xc9;" horiz-adv-x="1396" d="M119 0v229h108v1129h-108v231h1149v-514h-219v275h-394v-449h123v234h166v-670h-166v223h-123v-450h404v286h219v-524h-1159zM432 1661l244 301h412l-432 -301h-224z" />
<glyph unicode="&#xca;" horiz-adv-x="1396" d="M119 0v229h108v1129h-108v231h1149v-514h-219v275h-394v-449h123v234h166v-670h-166v223h-123v-450h404v286h219v-524h-1159zM303 1661l273 301h248l270 -301h-342l-117 151l-117 -151h-215z" />
<glyph unicode="&#xcb;" horiz-adv-x="1396" d="M119 0v229h108v1129h-108v231h1149v-514h-219v275h-394v-449h123v234h166v-670h-166v223h-123v-450h404v286h219v-524h-1159zM319 1796v33q0 113 95 112h102q90 0 90 -108v-37q0 -111 -90 -111h-100q-96 0 -97 111zM788 1796v33q0 113 95 112h100q92 0 92 -108v-37 q0 -111 -92 -111h-98q-96 0 -97 111z" />
<glyph unicode="&#xcc;" horiz-adv-x="897" d="M61 1962h412l244 -301h-223zM129 0v229h104v1129h-104v231h639v-231h-106v-1129h106v-229h-639z" />
<glyph unicode="&#xcd;" horiz-adv-x="897" d="M129 0v229h104v1129h-104v231h639v-231h-106v-1129h106v-229h-639zM182 1661l244 301h412l-432 -301h-224z" />
<glyph unicode="&#xce;" horiz-adv-x="897" d="M55 1661l273 301h248l270 -301h-342l-117 151l-117 -151h-215zM129 0v229h104v1129h-104v231h639v-231h-106v-1129h106v-229h-639z" />
<glyph unicode="&#xcf;" horiz-adv-x="897" d="M69 1796v33q0 113 95 112h102q90 0 90 -108v-37q0 -111 -90 -111h-100q-96 0 -97 111zM129 0v229h104v1129h-104v231h639v-231h-106v-1129h106v-229h-639zM538 1796v33q0 113 95 112h100q92 0 92 -108v-37q0 -111 -92 -111h-98q-96 0 -97 111z" />
<glyph unicode="&#xd0;" horiz-adv-x="1404" d="M119 0v229h108v459h-108v213h108v457h-108v231h807q94 0 159.5 -14t106.5 -50t60.5 -97.5t19.5 -155.5v-973q0 -86 -18.5 -144.5t-59.5 -92t-105.5 -48t-156.5 -14.5h-813zM645 229h117q53 0 71.5 21.5t18.5 81.5v930q0 55 -18.5 75.5t-71.5 20.5h-117v-457h115v-213 h-115v-459z" />
<glyph unicode="&#xd1;" horiz-adv-x="1427" d="M111 0v229h108v1129h-108v231h407l535 -817v586h-127v231h420v-231h-113v-1358h-203l-633 963v-734h113v-229h-399zM368 1681v100q0 76 42 120t130 44q68 0 120.5 -18.5t94 -41t77.5 -40.5t71 -18q33 0 44 16t11 51v43h101v-84q0 -182 -138 -182q-88 0 -148 18.5 t-104.5 41t-77 41t-65.5 18.5q-31 0 -40 -15.5t-9 -50.5v-43h-109z" />
<glyph unicode="&#xd2;" horiz-adv-x="1353" d="M133 258v1073q0 70 27.5 122t92 87t169 52.5t258.5 17.5t257 -17.5t165.5 -53.5t90.5 -89t28 -125v-1067q0 -70 -27 -122t-90.5 -87t-166.5 -52t-257 -17t-258.5 17t-169 52t-92 87t-27.5 122zM286 1962h412l244 -301h-223zM557 274q0 -33 28.5 -49t94.5 -16 q125 0 125 65v1037q0 66 -125 65q-66 0 -94.5 -16.5t-28.5 -48.5v-1037z" />
<glyph unicode="&#xd3;" horiz-adv-x="1353" d="M133 258v1073q0 70 27.5 122t92 87t169 52.5t258.5 17.5t257 -17.5t165.5 -53.5t90.5 -89t28 -125v-1067q0 -70 -27 -122t-90.5 -87t-166.5 -52t-257 -17t-258.5 17t-169 52t-92 87t-27.5 122zM409 1661l244 301h412l-432 -301h-224zM557 274q0 -33 28.5 -49t94.5 -16 q125 0 125 65v1037q0 66 -125 65q-66 0 -94.5 -16.5t-28.5 -48.5v-1037z" />
<glyph unicode="&#xd4;" horiz-adv-x="1353" d="M133 258v1073q0 70 27.5 122t92 87t169 52.5t258.5 17.5t257 -17.5t165.5 -53.5t90.5 -89t28 -125v-1067q0 -70 -27 -122t-90.5 -87t-166.5 -52t-257 -17t-258.5 17t-169 52t-92 87t-27.5 122zM301 1661l273 301h248l270 -301h-342l-117 151l-117 -151h-215zM557 274 q0 -33 28.5 -49t94.5 -16q125 0 125 65v1037q0 66 -125 65q-66 0 -94.5 -16.5t-28.5 -48.5v-1037z" />
<glyph unicode="&#xd5;" horiz-adv-x="1353" d="M133 258v1073q0 70 27.5 122t92 87t169 52.5t258.5 17.5t257 -17.5t165.5 -53.5t90.5 -89t28 -125v-1067q0 -70 -27 -122t-90.5 -87t-166.5 -52t-257 -17t-258.5 17t-169 52t-92 87t-27.5 122zM331 1681v100q0 76 42 120t130 44q68 0 120.5 -18.5t94 -41t77.5 -40.5 t71 -18q33 0 44 16t11 51v43h101v-84q0 -182 -138 -182q-88 0 -148 18.5t-104.5 41t-77 41t-65.5 18.5q-31 0 -40 -15.5t-9 -50.5v-43h-109zM557 274q0 -33 28.5 -49t94.5 -16q125 0 125 65v1037q0 66 -125 65q-66 0 -94.5 -16.5t-28.5 -48.5v-1037z" />
<glyph unicode="&#xd6;" horiz-adv-x="1353" d="M133 258v1073q0 70 27.5 122t92 87t169 52.5t258.5 17.5t257 -17.5t165.5 -53.5t90.5 -89t28 -125v-1067q0 -70 -27 -122t-90.5 -87t-166.5 -52t-257 -17t-258.5 17t-169 52t-92 87t-27.5 122zM299 1796v33q0 113 95 112h102q90 0 90 -108v-37q0 -111 -90 -111h-100 q-96 0 -97 111zM557 274q0 -33 28.5 -49t94.5 -16q125 0 125 65v1037q0 66 -125 65q-66 0 -94.5 -16.5t-28.5 -48.5v-1037zM768 1796v33q0 113 95 112h100q92 0 92 -108v-37q0 -111 -92 -111h-98q-96 0 -97 111z" />
<glyph unicode="&#xd7;" horiz-adv-x="1431" d="M231 442l361 361l-361 360l121 121l361 -360l362 362l121 -123l-360 -360l360 -363l-121 -121l-362 361l-361 -361z" />
<glyph unicode="&#xd8;" horiz-adv-x="1353" d="M133 -102l92 168q-49 35 -70.5 82t-21.5 110v1073q0 70 27.5 122t92 87t169 52.5t258.5 17.5q248 0 375 -49l96 172l70 -41l-95 -170q94 -68 95 -197v-1067q0 -70 -27 -122t-90.5 -87t-166.5 -52t-257 -17q-254 0 -383 49l-94 -172zM551 274q0 -66 129 -65q129 0 129 65 v674l-258 -465v-209zM551 651l258 465v195q0 66 -129 65q-129 0 -129 -65v-660z" />
<glyph unicode="&#xd9;" horiz-adv-x="1470" d="M82 1358v231h647v-231h-108v-1024q0 -63 45 -94t149 -31t146.5 30.5t42.5 94.5v1024h-111v231h487v-231h-118v-1102q0 -70 -22.5 -121t-79 -86t-154 -52t-246.5 -17q-156 0 -263.5 17t-175 52t-97 87t-29.5 122v1100h-113zM346 1962h412l244 -301h-223z" />
<glyph unicode="&#xda;" horiz-adv-x="1470" d="M82 1358v231h647v-231h-108v-1024q0 -63 45 -94t149 -31t146.5 30.5t42.5 94.5v1024h-111v231h487v-231h-118v-1102q0 -70 -22.5 -121t-79 -86t-154 -52t-246.5 -17q-156 0 -263.5 17t-175 52t-97 87t-29.5 122v1100h-113zM469 1661l244 301h412l-432 -301h-224z" />
<glyph unicode="&#xdb;" horiz-adv-x="1470" d="M82 1358v231h647v-231h-108v-1024q0 -63 45 -94t149 -31t146.5 30.5t42.5 94.5v1024h-111v231h487v-231h-118v-1102q0 -70 -22.5 -121t-79 -86t-154 -52t-246.5 -17q-156 0 -263.5 17t-175 52t-97 87t-29.5 122v1100h-113zM340 1661l273 301h248l270 -301h-342l-117 151 l-117 -151h-215z" />
<glyph unicode="&#xdc;" horiz-adv-x="1470" d="M82 1358v231h647v-231h-108v-1024q0 -63 45 -94t149 -31t146.5 30.5t42.5 94.5v1024h-111v231h487v-231h-118v-1102q0 -70 -22.5 -121t-79 -86t-154 -52t-246.5 -17q-156 0 -263.5 17t-175 52t-97 87t-29.5 122v1100h-113zM356 1796v33q0 113 95 112h102q90 0 90 -108 v-37q0 -111 -90 -111h-100q-96 0 -97 111zM825 1796v33q0 113 95 112h100q92 0 92 -108v-37q0 -111 -92 -111h-98q-96 0 -97 111z" />
<glyph unicode="&#xdd;" horiz-adv-x="1419" d="M41 1358v231h694v-231h-135l217 -504l227 504h-143v231h477v-231h-110l-342 -733v-396h118v-229h-657v229h115v396l-373 733h-88zM503 1661l244 301h412l-432 -301h-224z" />
<glyph unicode="&#xde;" horiz-adv-x="1376" d="M119 0v229h104v1129h-104v231h639v-231h-107v-111h334q287 0 287 -205v-428q0 -272 -287 -272h-334v-113h107v-229h-639zM651 569h135q55 0 56 60v321q0 66 -56 66h-135v-447z" />
<glyph unicode="&#xdf;" horiz-adv-x="1329" d="M125 0v1323q0 135 137 211t416 76q270 0 393 -68.5t123 -210.5v-201q0 -125 -49 -184t-166 -69q123 -16 179 -80t56 -174v-344q0 -279 -428 -279h-151v231h90q111 0 111 103v344q0 92 -105 92h-96v213h96q104 0 105 125v184q0 86 -152 86q-68 0 -104.5 -19.5t-36.5 -58.5 v-1300h-418z" />
<glyph unicode="&#xe0;" horiz-adv-x="1220" d="M133 238v682q0 137 70.5 214.5t214.5 77.5q98 0 162.5 -34.5t91.5 -81.5v96h407v-1192h-200q-139 0 -179 92q-35 -49 -103.5 -80.5t-170.5 -31.5q-293 0 -293 258zM282 1565h412l244 -301h-223zM551 309q0 -66 57 -65q53 0 54 65v596q0 57 -56 58q-55 0 -55 -58v-596z " />
<glyph unicode="&#xe1;" horiz-adv-x="1220" d="M133 238v682q0 137 70.5 214.5t214.5 77.5q98 0 162.5 -34.5t91.5 -81.5v96h407v-1192h-200q-139 0 -179 92q-35 -49 -103.5 -80.5t-170.5 -31.5q-293 0 -293 258zM282 1264l244 301h412l-432 -301h-224zM551 309q0 -66 57 -65q53 0 54 65v596q0 57 -56 58q-55 0 -55 -58 v-596z" />
<glyph unicode="&#xe2;" horiz-adv-x="1220" d="M133 238v682q0 137 70.5 214.5t214.5 77.5q98 0 162.5 -34.5t91.5 -81.5v96h407v-1192h-200q-139 0 -179 92q-35 -49 -103.5 -80.5t-170.5 -31.5q-293 0 -293 258zM215 1264l273 301h248l270 -301h-342l-117 151l-117 -151h-215zM551 309q0 -66 57 -65q53 0 54 65v596 q0 57 -56 58q-55 0 -55 -58v-596z" />
<glyph unicode="&#xe3;" horiz-adv-x="1220" d="M133 238v682q0 137 70.5 214.5t214.5 77.5q98 0 162.5 -34.5t91.5 -81.5v96h407v-1192h-200q-139 0 -179 92q-35 -49 -103.5 -80.5t-170.5 -31.5q-293 0 -293 258zM264 1284v100q0 76 42 120t130 44q68 0 120.5 -18.5t94 -41t77.5 -40.5t71 -18q33 0 44 16t11 51v43h101 v-84q0 -182 -138 -182q-88 0 -148 18.5t-104.5 41t-77 41t-65.5 18.5q-31 0 -40 -15.5t-9 -50.5v-43h-109zM551 309q0 -66 57 -65q53 0 54 65v596q0 57 -56 58q-55 0 -55 -58v-596z" />
<glyph unicode="&#xe4;" horiz-adv-x="1220" d="M133 238v682q0 137 70.5 214.5t214.5 77.5q98 0 162.5 -34.5t91.5 -81.5v96h407v-1192h-200q-139 0 -179 92q-35 -49 -103.5 -80.5t-170.5 -31.5q-293 0 -293 258zM231 1399v33q0 113 95 112h102q90 0 90 -108v-37q0 -111 -90 -111h-100q-96 0 -97 111zM551 309 q0 -66 57 -65q53 0 54 65v596q0 57 -56 58q-55 0 -55 -58v-596zM700 1399v33q0 113 95 112h100q92 0 92 -108v-37q0 -111 -92 -111h-98q-96 0 -97 111z" />
<glyph unicode="&#xe5;" horiz-adv-x="1220" d="M133 238v682q0 137 70.5 214.5t214.5 77.5q98 0 162.5 -34.5t91.5 -81.5v96h407v-1192h-200q-139 0 -179 92q-35 -49 -103.5 -80.5t-170.5 -31.5q-293 0 -293 258zM428 1391q0 74 52.5 124t132.5 50q78 0 128 -50t50 -124q0 -72 -50 -122t-128 -50q-80 0 -132.5 50 t-52.5 122zM506 1391q0 -43 30 -71t77 -28q43 0 72.5 28t29.5 71t-29.5 70.5t-72.5 27.5q-47 0 -77 -27.5t-30 -70.5zM551 309q0 -66 57 -65q53 0 54 65v596q0 57 -56 58q-55 0 -55 -58v-596z" />
<glyph unicode="&#xe6;" horiz-adv-x="1740" d="M129 238v213q0 137 70.5 214.5t214.5 77.5q98 0 162.5 -34.5t91.5 -81.5v295q-4 59 -56 59q-53 0 -53 -66v-57h-418v76q0 141 100.5 209.5t288.5 68.5q143 0 222 -17t125 -62q41 45 115.5 62t181.5 17q227 0 332.5 -70.5t105.5 -213.5v-363h-527v-289q0 -66 72 -65 q76 0 76 65v203h379v-221q0 -279 -418 -278q-135 0 -219 35.5t-119 93.5q-31 -61 -121 -95t-243 -34q-76 0 -141.5 13t-115 44t-78 80t-28.5 121zM547 309q0 -66 57 -65q53 0 53 65v148q0 57 -55 57t-55 -57v-148zM1085 709h109v206q0 66 -55 66q-53 0 -54 -66v-206z" />
<glyph unicode="&#xe7;" d="M129 274v639q0 156 110.5 227.5t360.5 71.5q252 0 360.5 -70.5t108.5 -213.5v-250h-414v237q0 66 -55 66q-53 0 -53 -66v-639q0 -66 53 -65q55 0 55 65v248h418v-266q0 -139 -111.5 -208.5t-361.5 -69.5t-360.5 71.5t-110.5 222.5zM452 -158q0 117 101 117h94 q100 0 100 -145q0 -211 -166 -211h-67v82h63q51 0 52 51h-62q-57 0 -86 24.5t-29 81.5z" />
<glyph unicode="&#xe8;" d="M129 258v664q0 150 110.5 220t360.5 70q252 0 362.5 -70.5t110.5 -213.5v-363h-526v-289q0 -66 71 -65q76 0 76 65v203h379v-221q0 -141 -108.5 -209.5t-346.5 -68.5q-264 0 -376.5 69.5t-112.5 208.5zM211 1565h412l244 -301h-223zM547 709h108v206q0 66 -55 66 q-53 0 -53 -66v-206z" />
<glyph unicode="&#xe9;" d="M129 258v664q0 150 110.5 220t360.5 70q252 0 362.5 -70.5t110.5 -213.5v-363h-526v-289q0 -66 71 -65q76 0 76 65v203h379v-221q0 -141 -108.5 -209.5t-346.5 -68.5q-264 0 -376.5 69.5t-112.5 208.5zM333 1264l244 301h412l-432 -301h-224zM547 709h108v206 q0 66 -55 66q-53 0 -53 -66v-206z" />
<glyph unicode="&#xea;" d="M129 258v664q0 150 110.5 220t360.5 70q252 0 362.5 -70.5t110.5 -213.5v-363h-526v-289q0 -66 71 -65q76 0 76 65v203h379v-221q0 -141 -108.5 -209.5t-346.5 -68.5q-264 0 -376.5 69.5t-112.5 208.5zM204 1264l273 301h248l270 -301h-342l-117 151l-117 -151h-215z M547 709h108v206q0 66 -55 66q-53 0 -53 -66v-206z" />
<glyph unicode="&#xeb;" d="M129 258v664q0 150 110.5 220t360.5 70q252 0 362.5 -70.5t110.5 -213.5v-363h-526v-289q0 -66 71 -65q76 0 76 65v203h379v-221q0 -141 -108.5 -209.5t-346.5 -68.5q-264 0 -376.5 69.5t-112.5 208.5zM223 1399v33q0 113 95 112h102q90 0 90 -108v-37q0 -111 -90 -111 h-100q-96 0 -97 111zM547 709h108v206q0 66 -55 66q-53 0 -53 -66v-206zM692 1399v33q0 113 95 112h100q92 0 92 -108v-37q0 -111 -92 -111h-98q-96 0 -97 111z" />
<glyph unicode="&#xec;" horiz-adv-x="718" d="M34 1565h412l244 -301h-223zM39 954v238h526v-1192h-418v954h-108z" />
<glyph unicode="&#xed;" horiz-adv-x="718" d="M34 1264l244 301h412l-432 -301h-224zM39 954v238h526v-1192h-418v954h-108z" />
<glyph unicode="&#xee;" horiz-adv-x="718" d="M-33 1264l273 301h248l270 -301h-342l-117 151l-117 -151h-215zM39 954v238h526v-1192h-418v954h-108z" />
<glyph unicode="&#xef;" horiz-adv-x="718" d="M-17 1399v33q0 113 95 112h102q90 0 90 -108v-37q0 -111 -90 -111h-100q-96 0 -97 111zM39 954v238h526v-1192h-418v954h-108zM452 1399v33q0 113 95 112h100q92 0 92 -108v-37q0 -111 -92 -111h-98q-96 0 -97 111z" />
<glyph unicode="&#xf0;" horiz-adv-x="1210" d="M133 258v483q0 141 88 210t254 69q61 0 115.5 -12.5t91.5 -32.5q-6 92 -28.5 154.5t-59.5 113.5l-205 -131l-45 70l193 125q-63 53 -142.5 77.5t-165.5 24.5h-39v201h68q354 0 549 -129l203 129l45 -70l-178 -115q104 -100 152 -255.5t48 -372.5v-539 q0 -139 -111.5 -208.5t-361.5 -69.5t-360.5 69.5t-110.5 208.5zM551 274q0 -66 53 -65q55 0 55 65v449q0 66 -55 65q-53 0 -53 -65v-449z" />
<glyph unicode="&#xf1;" horiz-adv-x="1228" d="M39 954v238h516v-80q33 41 93.5 70.5t158.5 29.5q143 0 214 -56t71 -191v-965h-418v854q0 66 -56 66q-53 0 -53 -66v-854h-418v954h-108zM268 1284v100q0 76 42 120t130 44q68 0 120.5 -18.5t94 -41t77.5 -40.5t71 -18q33 0 44 16t11 51v43h101v-84q0 -182 -138 -182 q-88 0 -148 18.5t-104.5 41t-77 41t-65.5 18.5q-31 0 -40 -15.5t-9 -50.5v-43h-109z" />
<glyph unicode="&#xf2;" d="M129 258v676q0 141 110.5 209.5t360.5 68.5q252 0 362.5 -70.5t110.5 -213.5v-670q0 -139 -111.5 -208.5t-361.5 -69.5t-360.5 69.5t-110.5 208.5zM211 1565h412l244 -301h-223zM547 274q0 -66 53 -65q55 0 55 65v641q0 66 -55 66q-53 0 -53 -66v-641z" />
<glyph unicode="&#xf3;" d="M129 258v676q0 141 110.5 209.5t360.5 68.5q252 0 362.5 -70.5t110.5 -213.5v-670q0 -139 -111.5 -208.5t-361.5 -69.5t-360.5 69.5t-110.5 208.5zM333 1264l244 301h412l-432 -301h-224zM547 274q0 -66 53 -65q55 0 55 65v641q0 66 -55 66q-53 0 -53 -66v-641z" />
<glyph unicode="&#xf4;" d="M129 258v676q0 141 110.5 209.5t360.5 68.5q252 0 362.5 -70.5t110.5 -213.5v-670q0 -139 -111.5 -208.5t-361.5 -69.5t-360.5 69.5t-110.5 208.5zM204 1264l273 301h248l270 -301h-342l-117 151l-117 -151h-215zM547 274q0 -66 53 -65q55 0 55 65v641q0 66 -55 66 q-53 0 -53 -66v-641z" />
<glyph unicode="&#xf5;" d="M129 258v676q0 141 110.5 209.5t360.5 68.5q252 0 362.5 -70.5t110.5 -213.5v-670q0 -139 -111.5 -208.5t-361.5 -69.5t-360.5 69.5t-110.5 208.5zM256 1284v100q0 76 42 120t130 44q68 0 120.5 -18.5t94 -41t77.5 -40.5t71 -18q33 0 44 16t11 51v43h101v-84 q0 -182 -138 -182q-88 0 -148 18.5t-104.5 41t-77 41t-65.5 18.5q-31 0 -40 -15.5t-9 -50.5v-43h-109zM547 274q0 -66 53 -65q55 0 55 65v641q0 66 -55 66q-53 0 -53 -66v-641z" />
<glyph unicode="&#xf6;" d="M129 258v676q0 141 110.5 209.5t360.5 68.5q252 0 362.5 -70.5t110.5 -213.5v-670q0 -139 -111.5 -208.5t-361.5 -69.5t-360.5 69.5t-110.5 208.5zM223 1399v33q0 113 95 112h102q90 0 90 -108v-37q0 -111 -90 -111h-100q-96 0 -97 111zM547 274q0 -66 53 -65q55 0 55 65 v641q0 66 -55 66q-53 0 -53 -66v-641zM692 1399v33q0 113 95 112h100q92 0 92 -108v-37q0 -111 -92 -111h-98q-96 0 -97 111z" />
<glyph unicode="&#xf7;" horiz-adv-x="1431" d="M119 717v172h1194v-172h-1194zM533 256v82q0 137 125 137h118q123 0 123 -133v-86q0 -133 -123 -133h-116q-127 0 -127 133zM533 1259v82q0 137 125 137h118q123 0 123 -133v-86q0 -133 -123 -133h-116q-127 0 -127 133z" />
<glyph unicode="&#xf8;" d="M129 -102l96 159q-96 66 -96 201v676q0 141 110.5 209.5t360.5 68.5q190 0 301 -43l98 162l74 -37l-98 -161q98 -68 98 -205v-670q0 -139 -111.5 -208.5t-361.5 -69.5q-188 0 -301 40l-96 -159zM547 274q0 -66 53 -65q55 0 55 65v332l-108 -178v-154zM547 586l108 178 v151q0 66 -55 66q-53 0 -53 -66v-329z" />
<glyph unicode="&#xf9;" horiz-adv-x="1212" d="M39 954v238h506v-883q0 -66 53 -65q57 0 57 65v883h416v-1192h-217q-139 0 -182 96q-39 -47 -103.5 -81.5t-156.5 -34.5q-283 0 -283 204v770h-90zM278 1565h412l244 -301h-223z" />
<glyph unicode="&#xfa;" horiz-adv-x="1212" d="M39 954v238h506v-883q0 -66 53 -65q57 0 57 65v883h416v-1192h-217q-139 0 -182 96q-39 -47 -103.5 -81.5t-156.5 -34.5q-283 0 -283 204v770h-90zM278 1264l244 301h412l-432 -301h-224z" />
<glyph unicode="&#xfb;" horiz-adv-x="1212" d="M39 954v238h506v-883q0 -66 53 -65q57 0 57 65v883h416v-1192h-217q-139 0 -182 96q-39 -47 -103.5 -81.5t-156.5 -34.5q-283 0 -283 204v770h-90zM211 1264l273 301h248l270 -301h-342l-117 151l-117 -151h-215z" />
<glyph unicode="&#xfc;" horiz-adv-x="1212" d="M39 954v238h506v-883q0 -66 53 -65q57 0 57 65v883h416v-1192h-217q-139 0 -182 96q-39 -47 -103.5 -81.5t-156.5 -34.5q-283 0 -283 204v770h-90zM227 1399v33q0 113 95 112h102q90 0 90 -108v-37q0 -111 -90 -111h-100q-96 0 -97 111zM696 1399v33q0 113 95 112h100 q92 0 92 -108v-37q0 -111 -92 -111h-98q-96 0 -97 111z" />
<glyph unicode="&#xfd;" horiz-adv-x="1286" d="M41 954v238h489l213 -903l152 665h-113v238h463v-238h-100l-246 -1073q-33 -141 -123 -209.5t-229 -68.5q-303 0 -303 311h254q0 -41 15 -61.5t56 -20.5q33 0 49.5 19.5t26.5 60.5l43 168h-266l-299 874h-82zM438 1264l244 301h412l-432 -301h-224z" />
<glyph unicode="&#xfe;" horiz-adv-x="1212" d="M39 -139h98v1491h-98v237h516v-473q49 96 242 96q287 0 286 -272v-688q0 -137 -73.5 -204.5t-231.5 -67.5q-33 0 -66.5 3t-64.5 7t-54.5 10t-37.5 12v-151h90v-238h-606v238zM555 287q0 -57 53 -58q55 0 56 58v624q0 57 -56 58q-53 0 -53 -58v-624z" />
<glyph unicode="&#xff;" horiz-adv-x="1286" d="M41 954v238h489l213 -903l152 665h-113v238h463v-238h-100l-246 -1073q-33 -141 -123 -209.5t-229 -68.5q-303 0 -303 311h254q0 -41 15 -61.5t56 -20.5q33 0 49.5 19.5t26.5 60.5l43 168h-266l-299 874h-82zM264 1399v33q0 113 95 112h102q90 0 90 -108v-37 q0 -111 -90 -111h-100q-96 0 -97 111zM733 1399v33q0 113 95 112h100q92 0 92 -108v-37q0 -111 -92 -111h-98q-96 0 -97 111z" />
<glyph unicode="&#x152;" horiz-adv-x="1978" d="M133 258v1073q0 70 27.5 122t92 87t169 52.5t258.5 17.5q82 0 149.5 -5.5t120.5 -15.5h899v-514h-219v283h-403v-457h133v234h166v-670h-166v223h-133v-459h413v295h220v-524h-904q-55 -10 -122.5 -15t-153.5 -5q-154 0 -258.5 17t-169 52t-92 87t-27.5 122zM551 274 q0 -66 129 -65q129 0 129 65v1037q0 66 -129 65q-129 0 -129 -65v-1037z" />
<glyph unicode="&#x153;" horiz-adv-x="1734" d="M129 258v676q0 141 105.5 209.5t326.5 68.5q111 0 193 -21.5t112 -49.5q29 29 111 50t192 21q225 0 331 -70.5t106 -213.5v-363h-527v-289q0 -66 72 -65q76 0 76 65v203h379v-221q0 -141 -106.5 -209.5t-330.5 -68.5q-51 0 -99 6t-89 16t-70.5 23.5t-42.5 25.5 q-27 -27 -109.5 -49t-191.5 -22q-227 0 -332.5 68.5t-105.5 209.5zM547 274q0 -66 53 -65q55 0 55 65v641q0 66 -55 66q-53 0 -53 -66v-641zM1079 709h109v206q0 66 -55 66q-53 0 -54 -66v-206z" />
<glyph unicode="&#x178;" horiz-adv-x="1419" d="M41 1358v231h694v-231h-135l217 -504l227 504h-143v231h477v-231h-110l-342 -733v-396h118v-229h-657v229h115v396l-373 733h-88zM331 1796v33q0 113 95 112h102q90 0 90 -108v-37q0 -111 -90 -111h-100q-96 0 -97 111zM800 1796v33q0 113 95 112h100q92 0 92 -108v-37 q0 -111 -92 -111h-98q-96 0 -97 111z" />
<glyph unicode="&#x2c6;" horiz-adv-x="913" d="M61 1264l273 301h248l270 -301h-342l-117 151l-117 -151h-215z" />
<glyph unicode="&#x2dc;" horiz-adv-x="813" d="M61 1284v100q0 76 42 120t130 44q68 0 120.5 -18.5t94 -41t77.5 -40.5t71 -18q33 0 44 16t11 51v43h101v-84q0 -182 -138 -182q-88 0 -148 18.5t-104.5 41t-77 41t-65.5 18.5q-31 0 -40 -15.5t-9 -50.5v-43h-109z" />
<glyph unicode="&#x2000;" horiz-adv-x="981" />
<glyph unicode="&#x2001;" horiz-adv-x="1962" />
<glyph unicode="&#x2002;" horiz-adv-x="981" />
<glyph unicode="&#x2003;" horiz-adv-x="1962" />
<glyph unicode="&#x2004;" horiz-adv-x="654" />
<glyph unicode="&#x2005;" horiz-adv-x="490" />
<glyph unicode="&#x2006;" horiz-adv-x="327" />
<glyph unicode="&#x2007;" horiz-adv-x="327" />
<glyph unicode="&#x2008;" horiz-adv-x="245" />
<glyph unicode="&#x2009;" horiz-adv-x="392" />
<glyph unicode="&#x200a;" horiz-adv-x="109" />
<glyph unicode="&#x2010;" horiz-adv-x="731" d="M78 586v192h575v-192h-575z" />
<glyph unicode="&#x2011;" horiz-adv-x="731" d="M78 586v192h575v-192h-575z" />
<glyph unicode="&#x2012;" horiz-adv-x="731" d="M78 586v192h575v-192h-575z" />
<glyph unicode="&#x2013;" horiz-adv-x="1126" d="M78 586v192h971v-192h-971z" />
<glyph unicode="&#x2014;" horiz-adv-x="1527" d="M78 586v192h1372v-192h-1372z" />
<glyph unicode="&#x2018;" horiz-adv-x="507" d="M70 1341q0 248 204 248h84v-69h-77q-82 0 -82 -78h94q143 0 143 -135q0 -137 -125 -138h-116q-125 0 -125 172z" />
<glyph unicode="&#x2019;" horiz-adv-x="505" d="M70 1452q0 137 125 137h116q123 0 123 -170q0 -250 -205 -250h-84v70h78q84 0 84 78h-96q-141 0 -141 135z" />
<glyph unicode="&#x201a;" horiz-adv-x="505" d="M70 213q0 137 125 137h116q123 0 123 -172q0 -248 -205 -248h-84v70h78q84 0 84 78h-96q-141 0 -141 135z" />
<glyph unicode="&#x201c;" horiz-adv-x="1015" d="M70 1341q0 248 204 248h84v-69h-77q-82 0 -82 -78h94q143 0 143 -135q0 -137 -125 -138h-116q-125 0 -125 172zM578 1341q0 248 204 248h84v-69h-77q-82 0 -82 -78h94q143 0 143 -135q0 -137 -125 -138h-116q-125 0 -125 172z" />
<glyph unicode="&#x201d;" horiz-adv-x="1011" d="M70 1452q0 137 125 137h116q123 0 123 -170q0 -250 -205 -250h-84v70h78q84 0 84 78h-96q-141 0 -141 135zM576 1452q0 137 125 137h116q123 0 123 -170q0 -250 -205 -250h-84v70h78q84 0 84 78h-96q-141 0 -141 135z" />
<glyph unicode="&#x201e;" horiz-adv-x="1011" d="M70 213q0 137 125 137h116q123 0 123 -172q0 -248 -205 -248h-84v70h78q84 0 84 78h-96q-141 0 -141 135zM576 213q0 137 125 137h116q123 0 123 -172q0 -248 -205 -248h-84v70h78q84 0 84 78h-96q-141 0 -141 135z" />
<glyph unicode="&#x2022;" horiz-adv-x="749" d="M154 629v293q0 100 92 100h260q90 0 90 -98v-295q0 -96 -90 -97h-258q-94 0 -94 97z" />
<glyph unicode="&#x2026;" horiz-adv-x="3020" d="M119 133v82q0 137 125 137h118q123 0 123 -133v-86q0 -133 -123 -133h-116q-127 0 -127 133zM1327 133v82q0 137 125 137h118q123 0 123 -133v-86q0 -133 -123 -133h-116q-127 0 -127 133zM2536 133v82q0 137 125 137h118q123 0 123 -133v-86q0 -133 -123 -133h-116 q-127 0 -127 133z" />
<glyph unicode="&#x202f;" horiz-adv-x="392" />
<glyph unicode="&#x2039;" horiz-adv-x="563" d="M78 608v154l407 403v-252l-231 -229l231 -229v-254z" />
<glyph unicode="&#x203a;" horiz-adv-x="563" d="M78 201v254l231 229l-231 229v252l407 -403v-154z" />
<glyph unicode="&#x205f;" horiz-adv-x="490" />
<glyph unicode="&#x20ac;" horiz-adv-x="1280" d="M92 631l17 94h88v172h-105l17 94h88v250q0 104 28.5 175t94 114t173 61.5t265.5 18.5q166 0 267 -15.5t171 -44.5l-72 -221q-82 27 -156.5 42t-133.5 15q-119 0 -170.5 -30.5t-51.5 -122.5v-242h402l-31 -94h-371v-172h316l-31 -94h-285v-324q0 -96 183 -96 q94 0 140 19.5t46 52.5v79h217v-98q0 -141 -131 -212.5t-365 -71.5q-268 0 -386.5 71.5t-118.5 227.5v352h-105z" />
<glyph unicode="&#x2122;" horiz-adv-x="1644" d="M119 1335v254h577v-254h-127v123h-57v-452h51v-134h-311v134h49v452h-57v-123h-125zM784 872v134h47v452h-47v131h297l88 -344l101 344h256v-131h-49v-452h49v-134h-289v134h47v333l-145 -467h-52l-149 476v-342h51v-134h-205z" />
<glyph unicode="&#xe000;" horiz-adv-x="1187" d="M0 0v1188h1188v-1188h-1188z" />
</font>
</defs>
</svg>
